<svg xmlns="http://www.w3.org/2000/svg" version="1.1" xmlns:xlink="http://www.w3.org/1999/xlink" xmlns:svgjs="http://svgjs.dev/svgjs" width="1440" height="560" preserveAspectRatio="none" viewBox="0 0 1440 560"><g mask="url(&quot;#SvgjsMask1010&quot;)" fill="none"><rect width="1440" height="560" x="0" y="0" fill="rgba(255, 255, 255, 1)"></rect><path d="M101 171L378 -106" stroke-width="6" stroke="url(&quot;#SvgjsLinearGradient1011&quot;)" stroke-linecap="round" class="TopRight"></path><path d="M326 38L16 348" stroke-width="8" stroke="url(&quot;#SvgjsLinearGradient1011&quot;)" stroke-linecap="round" class="TopRight"></path><path d="M724 263L997 -10" stroke-width="8" stroke="url(&quot;#SvgjsLinearGradient1012&quot;)" stroke-linecap="round" class="BottomLeft"></path><path d="M726 440L442 724" stroke-width="10" stroke="url(&quot;#SvgjsLinearGradient1012&quot;)" stroke-linecap="round" class="BottomLeft"></path><path d="M523 180L719 -16" stroke-width="10" stroke="url(&quot;#SvgjsLinearGradient1011&quot;)" stroke-linecap="round" class="TopRight"></path><path d="M927 442L1239 130" stroke-width="10" stroke="url(&quot;#SvgjsLinearGradient1012&quot;)" stroke-linecap="round" class="BottomLeft"></path><path d="M859 187L1153 -107" stroke-width="10" stroke="url(&quot;#SvgjsLinearGradient1012&quot;)" stroke-linecap="round" class="BottomLeft"></path><path d="M1166 559L967 758" stroke-width="6" stroke="url(&quot;#SvgjsLinearGradient1011&quot;)" stroke-linecap="round" class="TopRight"></path><path d="M372 394L148 618" stroke-width="8" stroke="url(&quot;#SvgjsLinearGradient1012&quot;)" stroke-linecap="round" class="BottomLeft"></path><path d="M366 375L703 38" stroke-width="10" stroke="url(&quot;#SvgjsLinearGradient1011&quot;)" stroke-linecap="round" class="TopRight"></path><path d="M1265 286L849 702" stroke-width="8" stroke="url(&quot;#SvgjsLinearGradient1011&quot;)" stroke-linecap="round" class="TopRight"></path><path d="M997 437L1306 128" stroke-width="6" stroke="url(&quot;#SvgjsLinearGradient1011&quot;)" stroke-linecap="round" class="TopRight"></path><path d="M67 21L-311 399" stroke-width="8" stroke="url(&quot;#SvgjsLinearGradient1012&quot;)" stroke-linecap="round" class="BottomLeft"></path><path d="M662 31L895 -202" stroke-width="8" stroke="url(&quot;#SvgjsLinearGradient1011&quot;)" stroke-linecap="round" class="TopRight"></path><path d="M1100 374L837 637" stroke-width="10" stroke="url(&quot;#SvgjsLinearGradient1011&quot;)" stroke-linecap="round" class="TopRight"></path><path d="M1166 108L763 511" stroke-width="10" stroke="url(&quot;#SvgjsLinearGradient1012&quot;)" stroke-linecap="round" class="BottomLeft"></path><path d="M485 210L669 26" stroke-width="6" stroke="url(&quot;#SvgjsLinearGradient1012&quot;)" stroke-linecap="round" class="BottomLeft"></path><path d="M1251 483L1629 105" stroke-width="10" stroke="url(&quot;#SvgjsLinearGradient1012&quot;)" stroke-linecap="round" class="BottomLeft"></path><path d="M459 409L684 184" stroke-width="10" stroke="url(&quot;#SvgjsLinearGradient1012&quot;)" stroke-linecap="round" class="BottomLeft"></path><path d="M557 51L141 467" stroke-width="10" stroke="url(&quot;#SvgjsLinearGradient1012&quot;)" stroke-linecap="round" class="BottomLeft"></path><path d="M964 542L578 928" stroke-width="6" stroke="url(&quot;#SvgjsLinearGradient1012&quot;)" stroke-linecap="round" class="BottomLeft"></path><path d="M413 358L41 730" stroke-width="6" stroke="url(&quot;#SvgjsLinearGradient1011&quot;)" stroke-linecap="round" class="TopRight"></path><path d="M803 476L544 735" stroke-width="10" stroke="url(&quot;#SvgjsLinearGradient1012&quot;)" stroke-linecap="round" class="BottomLeft"></path><path d="M689 371L837 223" stroke-width="8" stroke="url(&quot;#SvgjsLinearGradient1012&quot;)" stroke-linecap="round" class="BottomLeft"></path><path d="M711 398L519 590" stroke-width="10" stroke="url(&quot;#SvgjsLinearGradient1012&quot;)" stroke-linecap="round" class="BottomLeft"></path><path d="M340 348L527 161" stroke-width="6" stroke="url(&quot;#SvgjsLinearGradient1011&quot;)" stroke-linecap="round" class="TopRight"></path><path d="M496 392L355 533" stroke-width="6" stroke="url(&quot;#SvgjsLinearGradient1012&quot;)" stroke-linecap="round" class="BottomLeft"></path><path d="M1118 178L1523 -227" stroke-width="6" stroke="url(&quot;#SvgjsLinearGradient1011&quot;)" stroke-linecap="round" class="TopRight"></path><path d="M212 283L-113 608" stroke-width="6" stroke="url(&quot;#SvgjsLinearGradient1012&quot;)" stroke-linecap="round" class="BottomLeft"></path><path d="M1008 481L755 734" stroke-width="8" stroke="url(&quot;#SvgjsLinearGradient1012&quot;)" stroke-linecap="round" class="BottomLeft"></path><path d="M1397 43L1127 313" stroke-width="8" stroke="url(&quot;#SvgjsLinearGradient1011&quot;)" stroke-linecap="round" class="TopRight"></path><path d="M78 395L-215 688" stroke-width="6" stroke="url(&quot;#SvgjsLinearGradient1011&quot;)" stroke-linecap="round" class="TopRight"></path><path d="M1130 50L1444 -264" stroke-width="8" stroke="url(&quot;#SvgjsLinearGradient1011&quot;)" stroke-linecap="round" class="TopRight"></path><path d="M1355 334L1521 168" stroke-width="10" stroke="url(&quot;#SvgjsLinearGradient1012&quot;)" stroke-linecap="round" class="BottomLeft"></path><path d="M250 227L17 460" stroke-width="8" stroke="url(&quot;#SvgjsLinearGradient1012&quot;)" stroke-linecap="round" class="BottomLeft"></path><path d="M1307 429L910 826" stroke-width="8" stroke="url(&quot;#SvgjsLinearGradient1011&quot;)" stroke-linecap="round" class="TopRight"></path><path d="M389 218L806 -199" stroke-width="8" stroke="url(&quot;#SvgjsLinearGradient1012&quot;)" stroke-linecap="round" class="BottomLeft"></path><path d="M190 52L-221 463" stroke-width="8" stroke="url(&quot;#SvgjsLinearGradient1011&quot;)" stroke-linecap="round" class="TopRight"></path><path d="M74 435L-263 772" stroke-width="10" stroke="url(&quot;#SvgjsLinearGradient1012&quot;)" stroke-linecap="round" class="BottomLeft"></path></g><defs><mask id="SvgjsMask1010"><rect width="1440" height="560" fill="#ffffff"></rect></mask><linearGradient x1="0%" y1="100%" x2="100%" y2="0%" id="SvgjsLinearGradient1011"><stop stop-color="rgba(83, 251, 236, 0)" offset="0"></stop><stop stop-color="rgba(83, 251, 236, 1)" offset="1"></stop></linearGradient><linearGradient x1="100%" y1="0%" x2="0%" y2="100%" id="SvgjsLinearGradient1012"><stop stop-color="rgba(83, 251, 236, 0)" offset="0"></stop><stop stop-color="rgba(83, 251, 236, 1)" offset="1"></stop></linearGradient></defs></svg>